<svg width="24" height="24" viewBox="0 0 24 24" fill="none" xmlns="http://www.w3.org/2000/svg">
<path d="M20.292 21.707L11.586 13H6.99998V11H9.58598L7.58598 9H6.99998C5.34312 9 3.99998 10.3431 3.99998 12C3.99998 13.6569 5.34312 15 6.99998 15H9.99998V17H6.99998C4.48153 17.0021 2.35462 15.1307 2.03602 12.6325C1.71743 10.1343 3.30661 7.78905 5.74498 7.159L2.29198 3.707L3.70698 2.293L21.707 20.293L20.293 21.706L20.292 21.707ZM20.136 15.893L18.708 14.466C19.7864 13.7188 20.2543 12.3575 19.863 11.1052C19.4717 9.85294 18.312 9.0002 17 9H14V7H17C19.12 7.00025 21.0094 8.33744 21.7146 10.3367C22.4198 12.336 21.7876 14.5627 20.137 15.893H20.136Z" fill="#2E3A59"/>
</svg>
